<svg xmlns="http://www.w3.org/2000/svg" width="500" height="652" viewBox="0 0 500 652" shape-rendering="geometricPrecision" text-rendering="geometricPrecision" image-rendering="optimizeQuality" fill-rule="evenodd" clip-rule="evenodd"><defs><style type="text/css"><![CDATA[
    .fil0 {fill:#FFFFFF}
   ]]></style></defs><path id="Layer_x0020_1_0" class="fil0" d="M278 303s-5-5-10-5h-36l-10 5c-5 5-5 15-5 20l20 31-10 70 20 46c0 5 6 5 11 0l15-46-10-70 20-31c5-5 0-15-5-20zm146 15c-15 0-70-10-70-10-6 0-11 0-11 10l-80 212c-5 10-21 10-26 0l-75-212c-5-5-5-10-10-10-6 0-56 10-76 10-46 15-76 61-76 111v177c0 25 20 46 45 46h410c25 0 45-21 45-46v-177c0-50-30-96-76-111zm-171-60c70 0 126-56 126-127 0-70-56-131-126-131-71 0-132 61-132 131 0 71 61 127 132 127z"/></svg>